<?xml version="1.0" encoding="UTF-8" standalone="no"?>
<!-- Created with Inkscape (http://www.inkscape.org/) -->

<svg
   width="210mm"
   height="297mm"
   viewBox="0 0 210 297"
   version="1.1"
   id="svg263"
   xml:space="preserve"
   inkscape:version="1.2.1 (9c6d41e410, 2022-07-14)"
   sodipodi:docname="love_whale.svg"
   xmlns:inkscape="http://www.inkscape.org/namespaces/inkscape"
   xmlns:sodipodi="http://sodipodi.sourceforge.net/DTD/sodipodi-0.dtd"
   xmlns="http://www.w3.org/2000/svg"
   xmlns:svg="http://www.w3.org/2000/svg"><sodipodi:namedview
     id="namedview265"
     pagecolor="#ffffff"
     bordercolor="#999999"
     borderopacity="1"
     inkscape:showpageshadow="0"
     inkscape:pageopacity="0"
     inkscape:pagecheckerboard="0"
     inkscape:deskcolor="#d1d1d1"
     inkscape:document-units="mm"
     showgrid="false"
     inkscape:zoom="0.26425488"
     inkscape:cx="-164.6138"
     inkscape:cy="-238.4062"
     inkscape:window-width="1920"
     inkscape:window-height="1011"
     inkscape:window-x="0"
     inkscape:window-y="32"
     inkscape:window-maximized="0"
     inkscape:current-layer="layer2" /><defs
     id="defs260" /><g
     inkscape:groupmode="layer"
     id="layer2"
     inkscape:label="Layer 2"><ellipse
       style="opacity:1;fill:#aee7ff;fill-opacity:1;stroke:#aee7ff;stroke-width:0.26458333;stroke-opacity:1;stroke-dasharray:none;stroke-linejoin:round"
       id="path4333"
       cx="94.417206"
       cy="150.43677"
       rx="39.148598"
       ry="40.249966" /><ellipse
       style="opacity:1;fill:#25aae1;fill-opacity:1;stroke:#25aae1;stroke-width:0.26458333;stroke-linejoin:round;stroke-dasharray:none;stroke-opacity:1"
       id="path6615"
       cx="98.268394"
       cy="151.36734"
       rx="21.664356"
       ry="22.867937"><title
         id="title9354">Whale body</title></ellipse><circle
       style="opacity:1;fill:#ee3897;fill-opacity:1;stroke:#ee3897;stroke-width:0.264583;stroke-linejoin:round;stroke-dasharray:none;stroke-opacity:1"
       id="path8710"
       cx="91.628441"
       cy="155.90529"
       r="2.9036062" /><circle
       style="fill:#ee3897;fill-opacity:1;stroke:#ee3897;stroke-width:0.264583;stroke-linejoin:round;stroke-dasharray:none;stroke-opacity:1"
       id="path8710-3"
       cx="114.87067"
       cy="155.08427"
       r="2.9036062" /><path
       style="fill:none;stroke:#000000;stroke-width:0.79375;stroke-linecap:butt;stroke-linejoin:miter;stroke-opacity:1;stroke-dasharray:none"
       d="m 101.16172,155.37309 c 2.02625,7.07352 3.86896,0.68134 4.13013,-0.0751"
       id="path8741"
       sodipodi:nodetypes="cc" /><ellipse
       style="opacity:1;fill:#000000;fill-opacity:1;stroke:#000000;stroke-width:0.180864;stroke-linejoin:round;stroke-dasharray:none;stroke-opacity:1"
       id="path8743"
       ry="1.0431031"
       rx="0.93046218"
       cy="150.53688"
       cx="91.889084" /><ellipse
       style="fill:#000000;fill-opacity:1;stroke:#000000;stroke-width:0.180864;stroke-linejoin:round;stroke-dasharray:none;stroke-opacity:1"
       id="path8743-6"
       ry="1.0431031"
       rx="0.93046218"
       cy="150.28658"
       cx="114.89263" /><path
       style="fill:#ee3897;fill-opacity:1;stroke:#ee3897;stroke-width:0.264583px;stroke-linecap:butt;stroke-linejoin:miter;stroke-opacity:1"
       d="m 61.054911,130.01272 c 0,0 -6.159473,-4.8497 -4.000116,-7.36305 2.159355,-2.51335 4.106315,-1.13278 4.106315,-1.13278 l 2.194756,2.44255 c 0,0 1.840764,-3.29213 2.761144,-2.37175 0.920382,0.92038 1.415973,2.58415 1.415973,2.58415 0,0 -0.53099,4.00012 -2.300954,6.12408 -1.769965,2.12395 -4.177118,-0.2832 -4.177118,-0.2832 z"
       id="path9136" /><path
       style="fill:#25aae1;fill-opacity:1;stroke:#25aae1;stroke-width:0.264583px;stroke-linecap:butt;stroke-linejoin:miter;stroke-opacity:1"
       d="m 78.247141,160.09875 c -4.105103,-7.20895 -5.754225,-4.4127 -5.754225,-4.4127 0,0 -1.628365,3.92932 -3.398329,4.9205 -1.769962,0.99118 -0.495591,-16.21287 -0.495591,-16.21287 0,0 0.920382,-4.53111 2.619549,-2.40715 1.699168,2.12396 0.283194,5.45149 2.053159,6.72586 1.769965,1.27438 3.893923,-0.70798 3.893923,-0.70798 z"
       id="path9563" /><path
       style="fill:#ea316e;fill-opacity:1;stroke:#ea316e;stroke-width:0.264583px;stroke-linecap:butt;stroke-linejoin:miter;stroke-opacity:1"
       d="m 145.77532,96.009098 -20.26608,20.266082 6.08817,-22.721387 c 0,0 -22.40726,-8.960971 -22.12405,-10.660132 0.2832,-1.699161 2.69035,-21.664361 7.22146,-21.664361 4.5311,0 65.55946,18.690823 67.11703,20.106795 1.55758,1.415971 -3.39832,26.620255 -6.65506,26.620255 -3.25674,0 -31.38147,-11.947252 -31.38147,-11.947252 z"
       id="path9634" /><text
       xml:space="preserve"
       style="font-style:normal;font-variant:normal;font-weight:normal;font-stretch:normal;font-size:10.5833px;line-height:1.25;font-family:'Handy Andy';-inkscape-font-specification:'Handy Andy, Normal';font-variant-ligatures:normal;font-variant-caps:normal;font-variant-numeric:normal;font-variant-east-asian:normal;white-space:pre;inline-size:29.1205;fill:#ffffff;fill-opacity:1;stroke:none;stroke-width:0.264583;image-rendering:auto"
       x="140.35703"
       y="77.993134"
       id="text9783"
       transform="matrix(1.5099988,0.48296143,-0.42989765,1.6668068,-52.535103,-114.59703)"><tspan
         x="140.35703"
         y="77.993134"
         id="tspan2113">LÖVE</tspan></text><path
       style="fill:#ffffff;fill-opacity:1;stroke:#ffffff;stroke-width:0.264583px;stroke-linecap:butt;stroke-linejoin:miter;stroke-opacity:1"
       d="m 169.8478,93.863712 c 0,0 -3.65141,-6.937283 -0.65585,-8.353757 2.99555,-1.416474 4.21177,0.637165 4.21177,0.637165 l 1.01019,3.124504 c 0,0 3.02162,-2.257496 3.48755,-1.042134 0.46593,1.215359 0.24122,2.936767 0.24122,2.936767 0,0 -2.11357,3.437405 -4.59493,4.656758 -2.48136,1.219341 -3.69995,-1.959303 -3.69995,-1.959303 z"
       id="path9136-2" /></g></svg>
